<svg width="21" height="20" viewBox="0 0 21 20" fill="none" xmlns="http://www.w3.org/2000/svg">
<path d="M9.93869 0.697576C8.92169 0.685576 7.92568 1.02158 7.21969 1.72858L0.281698 8.8216C-0.0163017 9.1266 -0.0963135 9.56557 0.0946865 9.94757L1.00069 11.7596L0.969686 17.4786C0.969686 18.6096 1.87569 19.5096 3.00069 19.5096H6.18869C7.18569 19.5096 8.00069 18.6946 8.00069 17.6976V14.3906C8.00069 13.3516 8.84269 12.5096 9.88169 12.5096H10.1197C11.1587 12.5096 12.0007 13.3516 12.0007 14.3906V17.6976C12.0007 18.6946 12.8157 19.5096 13.8127 19.5096H17.0007C18.1257 19.5096 19.0317 18.6036 19.0317 17.4786L19.0007 11.7596L19.9067 9.94757C20.0997 9.56257 20.0237 9.09559 19.7197 8.79059C19.4597 8.53059 13.3447 2.41559 12.7197 1.79059C11.9947 1.06559 10.9547 0.708576 9.93869 0.697576Z" fill="#221654"/>
</svg>
