<svg width="21" height="21" viewBox="0 0 21 21" fill="none" xmlns="http://www.w3.org/2000/svg">
<path d="M10.6656 0.953125C5.14272 0.953125 0.684316 5.43012 0.665616 10.9531C0.646916 16.4681 5.14732 20.9731 10.6656 20.9841C16.1839 20.9951 20.6755 16.4291 20.6656 10.9531C20.6556 5.43012 16.1884 0.953125 10.6656 0.953125ZM10.6656 2.95312C15.0839 2.95312 18.6655 6.53512 18.6656 10.9531C18.6656 13.2031 17.7284 15.2311 16.2334 16.6851C15.497 15.0921 13.9151 13.9531 12.1031 13.9531C11.7437 13.9531 9.58732 13.9531 9.22812 13.9531C7.41722 13.9531 5.83992 15.0781 5.10312 16.6721C3.60812 15.2181 2.66562 13.2031 2.66562 10.9531C2.66562 6.53512 6.24732 2.95312 10.6656 2.95312ZM10.6656 4.95312C8.45642 4.95312 6.66552 6.74412 6.66562 8.95312C6.66562 11.1621 8.45642 12.9531 10.6656 12.9531C12.8747 12.9531 14.6657 11.1621 14.6656 8.95312C14.6656 6.74412 12.8747 4.95312 10.6656 4.95312Z" fill="#221654"/>
</svg>
