<svg width="21" height="19" viewBox="0 0 21 19" fill="none" xmlns="http://www.w3.org/2000/svg">
<path d="M6.59746 0.929688C4.11246 0.929688 2.09746 2.94439 2.09746 5.42969C2.09746 7.91499 4.11246 9.92969 6.59746 9.92969C9.08246 9.92969 11.0975 7.91499 11.0975 5.42969C11.0975 2.94439 9.08246 0.929688 6.59746 0.929688ZM17.0975 6.92969C16.5455 6.92969 16.0975 7.37739 16.0975 7.92969V8.92969H15.0975C14.5455 8.92969 14.0975 9.37739 14.0975 9.92969C14.0975 10.482 14.5455 10.9297 15.0975 10.9297H16.0975V11.9297C16.0975 12.482 16.5455 12.9297 17.0975 12.9297C17.6495 12.9297 18.0975 12.482 18.0975 11.9297V10.9297H19.0975C19.6495 10.9297 20.0975 10.482 20.0975 9.92969C20.0975 9.37739 19.6495 8.92969 19.0975 8.92969H18.0975V7.92969C18.0975 7.37739 17.6495 6.92969 17.0975 6.92969ZM3.15946 11.2735C1.32546 12.0303 0.0974579 13.8858 0.0974579 15.9297V17.9297C0.0974579 18.482 0.545458 18.9297 1.09746 18.9297H12.0975C12.6495 18.9297 13.0975 18.482 13.0975 17.9297V15.9297C13.0975 13.9339 11.8625 12.1234 10.0355 11.3359C9.77747 11.2251 9.47847 11.2217 9.22246 11.3359C8.33746 11.7325 7.47546 11.9295 6.59746 11.9297C5.72246 11.9297 4.85746 11.7217 3.94145 11.3047C3.68945 11.1901 3.41546 11.1682 3.15946 11.2735Z" fill="#221654"/>
</svg>
