<svg width="24" height="24" viewBox="0 0 24 24" fill="none" xmlns="http://www.w3.org/2000/svg">
    <path
        d="M14.8283 7.757L9.17229 13.414C9.07678 13.5062 9.0006 13.6166 8.94819 13.7386C8.89578 13.8606 8.86819 13.9918 8.86704 14.1246C8.86588 14.2574 8.89118 14.3891 8.94147 14.512C8.99175 14.6349 9.066 14.7465 9.15989 14.8404C9.25378 14.9343 9.36544 15.0085 9.48833 15.0588C9.61123 15.1091 9.74291 15.1344 9.87569 15.1333C10.0085 15.1321 10.1397 15.1045 10.2617 15.0521C10.3837 14.9997 10.494 14.9235 10.5863 14.828L16.2433 9.172C16.8059 8.60934 17.122 7.84622 17.122 7.0505C17.122 6.25479 16.8059 5.49166 16.2433 4.929C15.6806 4.36634 14.9175 4.05025 14.1218 4.05025C13.3261 4.05025 12.5629 4.36634 12.0003 4.929L6.34329 10.586C5.86936 11.0481 5.49192 11.5998 5.23284 12.2089C4.97377 12.818 4.83823 13.4726 4.83408 14.1345C4.82994 14.7964 4.95727 15.4526 5.20868 16.0649C5.4601 16.6772 5.83061 17.2336 6.2987 17.7016C6.7668 18.1696 7.32317 18.54 7.93554 18.7914C8.54791 19.0427 9.20409 19.1699 9.86602 19.1657C10.5279 19.1615 11.1824 19.0258 11.7915 18.7667C12.4006 18.5075 12.9522 18.13 13.4143 17.656L19.0713 12L20.4853 13.414L14.8283 19.071C14.1782 19.721 13.4065 20.2367 12.5572 20.5885C11.7079 20.9403 10.7976 21.1214 9.87829 21.1214C8.95899 21.1214 8.04869 20.9403 7.19937 20.5885C6.35004 20.2367 5.57833 19.721 4.92829 19.071C4.27824 18.421 3.7626 17.6492 3.4108 16.7999C3.059 15.9506 2.87793 15.0403 2.87793 14.121C2.87793 13.2017 3.059 12.2914 3.4108 11.4421C3.7626 10.5928 4.27824 9.82104 4.92829 9.171L10.5863 3.515C11.5293 2.60421 12.7923 2.10024 14.1033 2.11163C15.4143 2.12302 16.6683 2.64887 17.5954 3.57591C18.5224 4.50295 19.0483 5.75701 19.0597 7.068C19.071 8.37898 18.5671 9.64199 17.6563 10.585L12.0003 16.244C11.7216 16.5226 11.3908 16.7436 11.0267 16.8943C10.6627 17.0451 10.2725 17.1227 9.87843 17.1226C9.48439 17.1226 9.09421 17.0449 8.73018 16.8941C8.36615 16.7432 8.03539 16.5222 7.75679 16.2435C7.47819 15.9648 7.2572 15.634 7.10645 15.27C6.9557 14.9059 6.87813 14.5157 6.87818 14.1216C6.87823 13.7276 6.95588 13.3374 7.10672 12.9734C7.25756 12.6094 7.47862 12.2786 7.75729 12L13.4143 6.343L14.8283 7.757Z"
        fill="#324367" />
</svg>
