<svg width="12" height="8" viewBox="0 0 12 8" fill="none" xmlns="http://www.w3.org/2000/svg">
<path d="M7.98306 0.498047C7.83372 0.498047 7.69605 0.566304 7.5823 0.680054L2.47812 5.76614C2.32762 5.91664 2.17653 5.90671 2.0587 5.72996L1.23795 4.50847C1.05945 4.24072 0.703619 4.16546 0.436452 4.34455C0.168701 4.52305 0.0934519 4.8783 0.271952 5.14663L1.09212 6.36756C1.61828 7.15739 2.64612 7.25771 3.31638 6.58688L8.40247 1.50079C8.62997 1.27271 8.62997 0.908137 8.40247 0.680054C8.28872 0.566304 8.13239 0.498047 7.98306 0.498047ZM11.2643 0.498047C11.115 0.498047 10.9587 0.548217 10.8449 0.661967C10.8449 0.661967 4.80972 6.68138 4.73797 6.73271C5.29097 7.13929 6.04405 7.12296 6.57955 6.58688L11.6837 1.50079C11.9112 1.27271 11.9112 0.890051 11.6837 0.661967C11.57 0.548217 11.4137 0.498047 11.2643 0.498047Z" fill="#221654"/>
</svg>
