<svg width="20" height="20" viewBox="0 0 20 20" fill="none" xmlns="http://www.w3.org/2000/svg">
<path d="M3.9262 13.3357C3.81074 12.7977 3.74996 12.2393 3.74996 11.6667C3.74996 7.29449 7.29437 3.75008 11.6666 3.75008C12.2392 3.75008 12.7975 3.81086 13.3356 3.92632C12.114 2.54077 10.3257 1.66675 8.33329 1.66675C4.65139 1.66675 1.66663 4.65151 1.66663 8.33341C1.66663 10.3258 2.54065 12.1141 3.9262 13.3357Z" fill="#221654"/>
<path d="M18.3333 11.6667C18.3333 15.3486 15.3486 18.3333 11.6667 18.3333C7.98477 18.3333 5 15.3486 5 11.6667C5 7.98477 7.98477 5 11.6667 5C15.3486 5 18.3333 7.98477 18.3333 11.6667ZM11.71 16.6667C11.8701 16.6667 11.9993 16.6037 12.0978 16.4777C12.2025 16.3588 12.2548 16.212 12.2548 16.0371V15.3758C12.5937 15.3101 12.8954 15.1947 13.1599 15.0297C13.4739 14.8338 13.7202 14.5785 13.8987 14.2638C14.0773 13.9419 14.1666 13.5747 14.1666 13.1619C14.1666 12.6372 14.025 12.2106 13.7417 11.8817C13.4647 11.553 13.0337 11.3152 12.4488 11.1682L11.4237 10.9164C11.122 10.8394 10.9096 10.7415 10.7864 10.6226C10.6695 10.5037 10.611 10.3462 10.611 10.1504C10.611 9.88458 10.7095 9.66775 10.9065 9.49983C11.1097 9.33192 11.3929 9.248 11.7562 9.248C12.0455 9.248 12.2887 9.2795 12.4857 9.34242C12.6827 9.40542 12.8644 9.48233 13.0307 9.57325C13.1907 9.66425 13.3292 9.69917 13.4462 9.67825C13.5693 9.65025 13.6678 9.59075 13.7417 9.49983C13.8157 9.40192 13.8618 9.29 13.8802 9.16408C13.9049 9.03817 13.8926 8.91217 13.8433 8.78625C13.8002 8.66033 13.7202 8.55542 13.6032 8.4715C13.3877 8.29661 13.1322 8.16369 12.8367 8.07275C12.6337 8.00403 12.4397 7.95598 12.2548 7.92859V7.29626C12.2548 7.12138 12.2025 6.97447 12.0978 6.85554C11.9932 6.72962 11.8639 6.66667 11.71 6.66667C11.5499 6.66667 11.4175 6.72962 11.3128 6.85554C11.2082 6.97447 11.1558 7.12138 11.1558 7.29626V7.95637C10.8138 8.01455 10.5091 8.12679 10.2416 8.29311C9.92142 8.496 9.669 8.76183 9.48425 9.09058C9.30575 9.41942 9.21642 9.79367 9.21642 10.2133C9.21642 10.752 9.355 11.1927 9.632 11.5355C9.90908 11.8712 10.3308 12.1092 10.8972 12.249L11.9132 12.5008C12.1225 12.5498 12.2887 12.6128 12.4118 12.6897C12.5412 12.7597 12.6304 12.8437 12.6797 12.9416C12.7351 13.0395 12.7628 13.1514 12.7628 13.2773C12.7628 13.4312 12.7228 13.5677 12.6427 13.6866C12.5688 13.8055 12.4457 13.9035 12.2733 13.9804C12.1009 14.0503 11.8732 14.0853 11.5899 14.0853C11.2082 14.0853 10.885 14.0398 10.6202 13.9489C10.3555 13.851 10.1493 13.7566 10.0014 13.6656C9.8475 13.5747 9.709 13.5467 9.58583 13.5817C9.46892 13.6167 9.37342 13.6901 9.29958 13.802C9.22567 13.907 9.18258 14.0329 9.17025 14.1797C9.158 14.3197 9.17642 14.4561 9.22567 14.589C9.28108 14.7219 9.3765 14.8268 9.512 14.9038C9.72133 15.0297 9.983 15.1452 10.297 15.2501C10.5479 15.3339 10.8342 15.3887 11.1558 15.4145V16.0371C11.1558 16.212 11.2082 16.3588 11.3128 16.4777C11.4175 16.6037 11.5499 16.6667 11.71 16.6667Z" fill="#6600DF"/>
</svg>
