<svg width="18" height="14" viewBox="0 0 18 14" fill="none" xmlns="http://www.w3.org/2000/svg">
<path d="M9.00097 0.331543C6.53514 0.331543 4.45764 1.5432 2.75097 3.53487C2.16681 4.2157 1.65597 4.94321 1.24097 5.66987C0.989308 6.10987 0.835967 6.44986 0.745967 6.65986C0.655967 6.86903 0.655967 7.12737 0.745967 7.33653C0.835967 7.54653 0.989308 7.88652 1.24097 8.32652C1.65597 9.05319 2.16681 9.7807 2.75097 10.4615C4.45764 12.4532 6.53514 13.6649 9.00097 13.6649C11.4668 13.6649 13.5443 12.4532 15.251 10.4615C15.8351 9.7807 16.346 9.05319 16.761 8.32652C17.0126 7.88652 17.166 7.54653 17.256 7.33653C17.346 7.12737 17.346 6.86903 17.256 6.65986C17.166 6.44986 17.0126 6.10987 16.761 5.66987C16.346 4.94321 15.8351 4.2157 15.251 3.53487C13.5443 1.5432 11.4668 0.331543 9.00097 0.331543ZM9.00097 3.66487C10.8418 3.66487 12.3343 5.15737 12.3343 6.9982C12.3343 8.83903 10.8418 10.3315 9.00097 10.3315C7.16014 10.3315 5.66764 8.83903 5.66764 6.9982C5.66764 5.15737 7.16014 3.66487 9.00097 3.66487ZM9.00097 5.33153C8.08014 5.33153 7.33431 6.07737 7.33431 6.9982C7.33431 7.91903 8.08014 8.66486 9.00097 8.66486C9.92181 8.66486 10.6676 7.91903 10.6676 6.9982C10.6676 6.07737 9.92181 5.33153 9.00097 5.33153Z" fill="#CFCFCF"/>
</svg>
