<svg width="21" height="19" viewBox="0 0 21 19" fill="none" xmlns="http://www.w3.org/2000/svg">
<path d="M10.9233 0.197576C9.90629 0.185576 8.91089 0.521582 8.20429 1.22858L1.26679 8.3216C0.968393 8.6266 0.888493 9.06557 1.07929 9.44757L1.98549 11.2596L1.95429 16.9786C1.95419 18.1096 2.86049 19.0096 3.98549 19.0096H8.17299C9.17029 19.0096 9.98529 18.1946 9.98529 17.1976V12.8846C9.98529 12.4006 10.3763 12.0096 10.8603 12.0096H11.1103C11.5943 12.0096 11.9853 12.4006 11.9853 12.8846V17.1976C11.9853 18.1946 12.8003 19.0096 13.7983 19.0096H17.9853C19.1103 19.0096 20.0163 18.1036 20.0163 16.9786L19.9853 11.2596L20.8913 9.44757C21.0843 9.06257 21.0083 8.59559 20.7043 8.29059C20.4443 8.03059 14.3293 1.91559 13.7043 1.29059C12.9793 0.565593 11.9393 0.208576 10.9233 0.197576ZM10.9233 2.19758C11.4263 2.20758 11.9283 2.39058 12.2663 2.72858C12.8473 3.30858 17.8023 8.26358 18.7663 9.22858L18.0793 10.5716C18.0093 10.7126 17.9843 10.8526 17.9853 11.0096L18.0163 16.9786C18.0163 16.9926 18.0063 17.0096 17.9853 17.0096H13.9853V12.8846C13.9853 11.2956 12.6993 10.0096 11.1103 10.0096H10.8603C9.27129 10.0096 7.98549 11.2956 7.98549 12.8846V17.0096H3.98549C3.96509 17.0096 3.95429 16.9986 3.95429 16.9786L3.98549 11.0096C3.98649 10.8526 3.96209 10.7126 3.89179 10.5716L3.20429 9.19757L9.61029 2.63459C9.91929 2.32559 10.4193 2.18658 10.9233 2.19758Z" fill="#D9D9D9"/>
</svg>
