<svg width="20" height="19" viewBox="0 0 20 19" fill="none" xmlns="http://www.w3.org/2000/svg">
<path d="M13.4989 0.489746C11.0136 0.489746 8.9989 2.50475 8.9989 4.98975C8.9989 7.47475 11.0136 9.48975 13.4989 9.48975C15.9842 9.48975 17.9989 7.47475 17.9989 4.98975C17.9989 2.50475 15.9842 0.489746 13.4989 0.489746ZM5.9989 1.48975C3.7898 1.48975 1.9989 3.28075 1.9989 5.48975C1.9989 7.69875 3.7898 9.48975 5.9989 9.48975C6.8283 9.48975 7.5854 9.26178 8.2517 8.79578C6.5429 6.25578 6.7851 3.82375 7.7164 1.86475C7.1845 1.61275 6.6003 1.48975 5.9989 1.48975ZM3.0614 10.8337C1.2273 11.5907 -0.00109863 13.4457 -0.00109863 15.4897V17.4897C-0.00109863 18.0417 0.446601 18.4897 0.998901 18.4897L5.1517 18.4918C4.9177 17.7318 4.9865 16.4997 5.0019 15.5027C5.0344 13.3857 5.9099 11.8757 6.2528 11.4777C5.6226 11.4727 4.8663 11.3197 4.3114 11.0837C4.1774 11.0267 4.0996 10.9817 3.8427 10.8647C3.5908 10.7497 3.3172 10.7277 3.0614 10.8337ZM10.0614 10.8337C8.2273 11.5907 6.9989 13.4457 6.9989 15.4897V17.4897C6.9989 18.0417 7.4466 18.4897 7.9989 18.4897H18.9989C19.5512 18.4897 19.9989 18.0417 19.9989 17.4897V15.4897C19.9989 13.4937 18.7637 11.6838 16.9364 10.8958C16.6792 10.7848 16.3795 10.7818 16.1239 10.8958C15.2391 11.2928 14.3771 11.4897 13.4989 11.4897C12.6237 11.4897 11.7587 11.2817 10.8427 10.8647C10.5908 10.7497 10.3172 10.7277 10.0614 10.8337Z" fill="#221654"/>
</svg>
