<svg width="21" height="21" viewBox="0 0 21 21" fill="none" xmlns="http://www.w3.org/2000/svg">
<path d="M10.6656 0.953125C5.14261 0.953125 0.684618 5.43012 0.665618 10.9531C0.646618 16.4681 5.14761 20.9731 10.6656 20.9841C16.1836 20.9951 20.6756 16.4291 20.6656 10.9531C20.6556 5.43012 16.1886 0.953125 10.6656 0.953125ZM10.6656 2.95312C15.0836 2.95312 18.6656 6.53512 18.6656 10.9531C18.6656 13.2031 17.7286 15.2311 16.2336 16.6851C15.4966 15.0921 13.9156 13.9531 12.1026 13.9531C11.7436 13.9531 9.58762 13.9531 9.22762 13.9531C7.41762 13.9531 5.83963 15.0781 5.10263 16.6721C3.60863 15.2181 2.66562 13.2031 2.66562 10.9531C2.66562 6.53512 6.24761 2.95312 10.6656 2.95312ZM10.6656 4.95312C8.45661 4.95312 6.66561 6.74412 6.66561 8.95312C6.66561 11.1621 8.45661 12.9531 10.6656 12.9531C12.8746 12.9531 14.6656 11.1621 14.6656 8.95312C14.6656 6.74412 12.8746 4.95312 10.6656 4.95312ZM10.6656 6.95312C11.7706 6.95312 12.6656 7.84812 12.6656 8.95312C12.6656 10.0581 11.7706 10.9531 10.6656 10.9531C9.56061 10.9531 8.66561 10.0581 8.66561 8.95312C8.66561 7.84812 9.56061 6.95312 10.6656 6.95312ZM9.22762 15.9531C9.58762 15.9531 11.7436 15.9531 12.1026 15.9531C13.2186 15.9531 14.2286 16.7671 14.5826 17.9141C13.1546 18.7571 11.5596 18.9531 10.6656 18.9531C9.74761 18.9531 8.22461 18.7471 6.76061 17.9401C7.11161 16.7831 8.12162 15.9531 9.22762 15.9531Z" fill="#D9D9D9"/>
</svg>
