<svg width="21" height="19" viewBox="0 0 21 19" fill="none" xmlns="http://www.w3.org/2000/svg">
<path d="M6.84746 0.42981C4.36246 0.42981 2.34746 2.44451 2.34746 4.92981C2.34746 7.41511 4.36246 9.42981 6.84746 9.42981C9.33246 9.42981 11.3475 7.41511 11.3475 4.92981C11.3475 2.44451 9.33246 0.42981 6.84746 0.42981ZM6.84746 2.42981C8.22846 2.42981 9.34746 3.54911 9.34746 4.92981C9.34746 6.31051 8.22846 7.42971 6.84746 7.42981C5.46646 7.42981 4.34746 6.31051 4.34746 4.92981C4.34746 3.54911 5.46646 2.42991 6.84746 2.42981ZM17.3475 6.42981C16.7955 6.42981 16.3475 6.87751 16.3475 7.42981V8.42981H15.3475C14.7955 8.42981 14.3475 8.87751 14.3475 9.42981C14.3475 9.98211 14.7955 10.4298 15.3475 10.4298H16.3475V11.4298C16.3475 11.9821 16.7955 12.4298 17.3475 12.4298C17.8995 12.4298 18.3475 11.9821 18.3475 11.4298V10.4298H19.3475C19.8995 10.4298 20.3475 9.98211 20.3475 9.42981C20.3475 8.87751 19.8995 8.42981 19.3475 8.42981H18.3475V7.42981C18.3475 6.87751 17.8995 6.42981 17.3475 6.42981ZM3.40945 10.7736C1.57545 11.5304 0.347458 13.3859 0.347458 15.4298V17.4298C0.347458 17.9821 0.795458 18.4298 1.34746 18.4298H12.3475C12.8995 18.4298 13.3475 17.9821 13.3475 17.4298V15.4298C13.3475 13.434 12.1125 11.6235 10.2855 10.836C10.0275 10.7252 9.72846 10.7218 9.47246 10.836C8.58746 11.2326 7.72546 11.4296 6.84746 11.4298C5.97246 11.4298 5.10745 11.2218 4.19145 10.8048C3.93945 10.6902 3.66545 10.6683 3.40945 10.7736ZM3.78546 12.8048C4.72946 13.1633 5.87846 13.43 6.84746 13.4298C7.80846 13.4298 8.89045 13.2094 9.81645 12.8673C10.7185 13.3821 11.3475 14.3292 11.3475 15.4298V16.4298H2.34746V15.4298C2.34746 14.2651 2.99346 13.2683 3.78546 12.8048Z" fill="#D9D9D9"/>
</svg>
