<svg width="10" height="10" viewBox="0 0 10 10" fill="none" xmlns="http://www.w3.org/2000/svg">
<path d="M4.99641 0.33667C4.21841 0.33667 3.43174 1.12294 3.61107 1.89227C3.68641 2.21781 3.87307 2.65747 4.2184 3.25334C4.3864 3.54287 4.01974 3.76267 3.85374 3.47214C3.51907 2.88527 3.2464 2.48554 3.00307 2.25681C2.40974 1.69827 1.35041 1.99647 0.961742 2.67C0.573076 3.3436 0.862404 4.40934 1.61774 4.63867C1.93774 4.73601 2.38707 4.78601 3.0764 4.78467C3.41707 4.78401 3.42773 5.19934 3.1004 5.19801C2.42507 5.19401 1.96174 5.24734 1.64241 5.34334C0.861739 5.57867 0.573076 6.63867 0.961742 7.31267C1.35041 7.98601 2.40241 8.28934 2.97907 7.75001C3.22307 7.52134 3.51107 7.13201 3.85374 6.53467C4.01974 6.24667 4.3844 6.47 4.2184 6.75334C3.87774 7.33667 3.68774 7.76534 3.61107 8.09001C3.42441 8.88334 4.21841 9.67 4.99641 9.67C5.77441 9.67 6.5364 8.88401 6.35773 8.11468C6.28173 7.78868 6.09573 7.34934 5.74973 6.75334C5.56973 6.44334 5.96306 6.22601 6.13906 6.53467C6.47373 7.12134 6.7464 7.49667 6.98973 7.72534C7.58306 8.28401 8.6424 8.01 9.03107 7.33667C9.41974 6.66334 9.1304 5.59734 8.37506 5.36801C8.05506 5.27067 7.58107 5.22067 6.8924 5.22201C6.54507 5.22267 6.55173 4.78267 6.8924 4.78467C7.56773 4.78801 8.05506 4.73467 8.37506 4.63867C9.15573 4.40401 9.41974 3.3436 9.03107 2.67C8.6424 1.99647 7.5904 1.71721 7.01374 2.25681C6.76974 2.48521 6.48173 2.85041 6.13906 3.44781C5.96306 3.75401 5.57506 3.55227 5.74973 3.25334C6.0904 2.67007 6.28107 2.24147 6.35773 1.91654C6.5444 1.12307 5.77441 0.33667 4.99641 0.33667Z" fill="#221654"/>
</svg>
