<svg width="16" height="18" viewBox="0 0 16 18" fill="none" xmlns="http://www.w3.org/2000/svg">
<path d="M3.00004 4V13.8333C3.00004 14.7668 3.00004 15.2331 3.1817 15.5897C3.34149 15.9033 3.59627 16.1587 3.90987 16.3185C4.26604 16.5 4.73254 16.5 5.66413 16.5H10.3359C11.2675 16.5 11.7334 16.5 12.0895 16.3185C12.4031 16.1587 12.6588 15.9033 12.8186 15.5897C13 15.2335 13 14.7675 13 13.8359V4M3.00004 4H4.66671M3.00004 4H1.33337M4.66671 4H11.3334M4.66671 4C4.66671 3.22343 4.66671 2.83534 4.79357 2.52905C4.96273 2.12067 5.28697 1.79602 5.69535 1.62687C6.00164 1.5 6.39014 1.5 7.16671 1.5H8.83337C9.60994 1.5 9.99823 1.5 10.3045 1.62687C10.7129 1.79602 11.0373 2.12067 11.2064 2.52905C11.3333 2.83534 11.3334 3.22343 11.3334 4M11.3334 4H13M13 4H14.6667" stroke="#242424" stroke-opacity="0.3" stroke-width="1.5" stroke-linecap="round" stroke-linejoin="round"/>
</svg>
